<svg width="1700" height="2124" viewBox="0 0 1700 2124" fill="none" xmlns="http://www.w3.org/2000/svg">
<g clip-path="url(#clip0_506_1847)">
<rect width="1700" height="2124" fill="white"/>
<path d="M850.814 424.736L1276.22 424.736V-3.05176e-05L850.814 -3.05176e-05V424.736Z" fill="#8EB5F0"/>
<path d="M1276.22 424.736C1220.36 424.736 1165.04 413.75 1113.43 392.405C1061.81 371.059 1014.92 339.773 975.415 300.332C935.911 260.893 904.575 214.071 883.196 162.539C861.818 111.008 850.814 55.7769 850.814 0L1276.22 1.38438e-05V424.736Z" fill="#FFFDEE"/>
<path d="M425.409 424.736L0 424.736L-1.85681e-05 0.000213623L425.409 0.00019503L425.409 424.736Z" fill="#8EB5F0"/>
<path d="M211.194 62.2015L361.598 212.368L211.194 362.535L60.789 212.368L211.194 62.2015Z" fill="#546EF3"/>
<path d="M425.409 424.736H0V849.471H425.409V424.736Z" fill="#546EF3"/>
<path d="M0 817.617L0 838.854H425.409V817.617H0Z" fill="#1E1E1E"/>
<path d="M0 775.143L0 796.38H425.409V775.143H0Z" fill="#1E1E1E"/>
<path d="M0 732.669L0 753.906H425.409V732.669H0Z" fill="#1E1E1E"/>
<path d="M0 690.195L0 711.432H425.409V690.195H0Z" fill="#1E1E1E"/>
<path d="M0 647.721L0 668.958H425.409V647.721H0Z" fill="#1E1E1E"/>
<path d="M0 605.25L0 626.486H425.409V605.25H0Z" fill="#1E1E1E"/>
<path d="M0 562.775L0 584.012H425.409V562.775H0Z" fill="#1E1E1E"/>
<path d="M0 520.301L0 541.538H425.409V520.301H0Z" fill="#1E1E1E"/>
<path d="M0 477.827L0 499.064H425.409V477.827H0Z" fill="#1E1E1E"/>
<path d="M0 435.353L0 456.59H425.409V435.353H0Z" fill="#1E1E1E"/>
<path d="M1276.23 1274.2H850.817V1698.94H1276.23V1274.2Z" fill="#546EF3"/>
<path d="M903.993 1486.57C903.993 1398.61 975.416 1327.3 1063.52 1327.3C1151.63 1327.3 1223.05 1398.61 1223.05 1486.57C1223.05 1574.54 1151.63 1645.85 1063.52 1645.85C975.416 1645.85 903.993 1574.54 903.993 1486.57Z" fill="#FFFDEE"/>
<path d="M1701.63 0.000732422H1276.22V424.736H1701.63V0.000732422Z" fill="#546EF3"/>
<path d="M1329.4 212.369C1329.4 124.403 1400.82 53.0931 1488.93 53.0931C1577.03 53.0931 1648.46 124.403 1648.46 212.369C1648.46 300.334 1577.03 371.645 1488.93 371.645C1400.82 371.645 1329.4 300.334 1329.4 212.369Z" fill="#FFFDEE"/>
<path d="M1701.63 424.736H1276.22V849.471H1701.63V424.736Z" fill="#1E1E1E"/>
<path d="M1329.4 637.104C1329.4 549.139 1400.82 477.828 1488.93 477.828C1577.03 477.828 1648.46 549.139 1648.46 637.104C1648.46 725.07 1577.03 796.38 1488.93 796.38C1400.82 796.38 1329.4 725.07 1329.4 637.104Z" fill="#FFFDEE"/>
<path d="M850.819 424.736L425.41 424.736L425.41 -3.05176e-05L850.819 -4.90785e-05L850.819 424.736Z" fill="#546EF3"/>
<path d="M465.819 390.758C465.819 387.239 462.962 384.387 459.438 384.387C455.914 384.387 453.057 387.239 453.057 390.758C453.057 394.276 455.914 397.129 459.438 397.129C462.962 397.129 465.819 394.276 465.819 390.758Z" fill="#1E1E1E"/>
<path d="M465.819 346.159C465.819 342.641 462.962 339.788 459.438 339.788C455.914 339.788 453.057 342.641 453.057 346.159C453.057 349.678 455.914 352.53 459.438 352.53C462.962 352.53 465.819 349.678 465.819 346.159Z" fill="#1E1E1E"/>
<path d="M465.819 301.561C465.819 298.043 462.962 295.19 459.438 295.19C455.914 295.19 453.057 298.043 453.057 301.561C453.057 305.08 455.914 307.932 459.438 307.932C462.962 307.932 465.819 305.08 465.819 301.561Z" fill="#1E1E1E"/>
<path d="M465.819 256.966C465.819 253.447 462.962 250.595 459.438 250.595C455.914 250.595 453.057 253.447 453.057 256.966C453.057 260.484 455.914 263.337 459.438 263.337C462.962 263.337 465.819 260.484 465.819 256.966Z" fill="#1E1E1E"/>
<path d="M465.819 212.368C465.819 208.85 462.962 205.997 459.438 205.997C455.914 205.997 453.057 208.85 453.057 212.368C453.057 215.887 455.914 218.74 459.438 218.74C462.962 218.74 465.819 215.887 465.819 212.368Z" fill="#1E1E1E"/>
<path d="M465.819 167.771C465.819 164.253 462.962 161.4 459.438 161.4C455.914 161.4 453.057 164.253 453.057 167.771C453.057 171.29 455.914 174.142 459.438 174.142C462.962 174.142 465.819 171.29 465.819 167.771Z" fill="#1E1E1E"/>
<path d="M465.819 123.174C465.819 119.655 462.962 116.803 459.438 116.803C455.914 116.803 453.057 119.655 453.057 123.174C453.057 126.693 455.914 129.545 459.438 129.545C462.962 129.545 465.819 126.693 465.819 123.174Z" fill="#1E1E1E"/>
<path d="M465.819 78.5762C465.819 75.0576 462.962 72.2052 459.438 72.2052C455.914 72.2052 453.057 75.0576 453.057 78.5762C453.057 82.0948 455.914 84.9473 459.438 84.9473C462.962 84.9473 465.819 82.0948 465.819 78.5762Z" fill="#1E1E1E"/>
<path d="M465.819 33.9791C465.819 30.4604 462.962 27.608 459.438 27.608C455.914 27.608 453.057 30.4604 453.057 33.9791C453.057 37.4977 455.914 40.3501 459.438 40.3501C462.962 40.3501 465.819 37.4977 465.819 33.9791Z" fill="#1E1E1E"/>
<path d="M510.491 390.758C510.491 387.239 507.634 384.387 504.11 384.387C500.586 384.387 497.729 387.239 497.729 390.758C497.729 394.276 500.586 397.129 504.11 397.129C507.634 397.129 510.491 394.276 510.491 390.758Z" fill="#1E1E1E"/>
<path d="M510.491 346.159C510.491 342.641 507.634 339.788 504.11 339.788C500.586 339.788 497.729 342.641 497.729 346.159C497.729 349.678 500.586 352.53 504.11 352.53C507.634 352.53 510.491 349.678 510.491 346.159Z" fill="#1E1E1E"/>
<path d="M510.491 301.561C510.491 298.043 507.634 295.19 504.11 295.19C500.586 295.19 497.729 298.043 497.729 301.561C497.729 305.08 500.586 307.932 504.11 307.932C507.634 307.932 510.491 305.08 510.491 301.561Z" fill="#1E1E1E"/>
<path d="M510.491 256.966C510.491 253.447 507.634 250.595 504.11 250.595C500.586 250.595 497.729 253.447 497.729 256.966C497.729 260.484 500.586 263.337 504.11 263.337C507.634 263.337 510.491 260.484 510.491 256.966Z" fill="#1E1E1E"/>
<path d="M510.491 212.368C510.491 208.85 507.634 205.997 504.11 205.997C500.586 205.997 497.729 208.85 497.729 212.368C497.729 215.887 500.586 218.74 504.11 218.74C507.634 218.74 510.491 215.887 510.491 212.368Z" fill="#1E1E1E"/>
<path d="M510.491 167.771C510.491 164.253 507.634 161.4 504.11 161.4C500.586 161.4 497.729 164.253 497.729 167.771C497.729 171.29 500.586 174.142 504.11 174.142C507.634 174.142 510.491 171.29 510.491 167.771Z" fill="#1E1E1E"/>
<path d="M510.491 123.174C510.491 119.655 507.634 116.803 504.11 116.803C500.586 116.803 497.729 119.655 497.729 123.174C497.729 126.693 500.586 129.545 504.11 129.545C507.634 129.545 510.491 126.693 510.491 123.174Z" fill="#1E1E1E"/>
<path d="M510.491 78.5762C510.491 75.0576 507.634 72.2052 504.11 72.2052C500.586 72.2052 497.729 75.0576 497.729 78.5762C497.729 82.0948 500.586 84.9473 504.11 84.9473C507.634 84.9473 510.491 82.0948 510.491 78.5762Z" fill="#1E1E1E"/>
<path d="M510.491 33.9791C510.491 30.4604 507.634 27.608 504.11 27.608C500.586 27.608 497.729 30.4604 497.729 33.9791C497.729 37.4977 500.586 40.3501 504.11 40.3501C507.634 40.3501 510.491 37.4977 510.491 33.9791Z" fill="#1E1E1E"/>
<path d="M555.157 390.758C555.157 387.239 552.3 384.387 548.776 384.387C545.251 384.387 542.395 387.239 542.395 390.758C542.395 394.276 545.251 397.129 548.776 397.129C552.3 397.129 555.157 394.276 555.157 390.758Z" fill="#1E1E1E"/>
<path d="M555.157 346.159C555.157 342.641 552.3 339.788 548.776 339.788C545.251 339.788 542.395 342.641 542.395 346.159C542.395 349.678 545.251 352.53 548.776 352.53C552.3 352.53 555.157 349.678 555.157 346.159Z" fill="#1E1E1E"/>
<path d="M555.157 301.561C555.157 298.043 552.3 295.19 548.776 295.19C545.251 295.19 542.395 298.043 542.395 301.561C542.395 305.08 545.251 307.932 548.776 307.932C552.3 307.932 555.157 305.08 555.157 301.561Z" fill="#1E1E1E"/>
<path d="M555.157 256.966C555.157 253.447 552.3 250.595 548.776 250.595C545.251 250.595 542.395 253.447 542.395 256.966C542.395 260.484 545.251 263.337 548.776 263.337C552.3 263.337 555.157 260.484 555.157 256.966Z" fill="#1E1E1E"/>
<path d="M555.157 212.368C555.157 208.85 552.3 205.997 548.776 205.997C545.251 205.997 542.395 208.85 542.395 212.368C542.395 215.887 545.251 218.74 548.776 218.74C552.3 218.74 555.157 215.887 555.157 212.368Z" fill="#1E1E1E"/>
<path d="M555.157 167.771C555.157 164.253 552.3 161.4 548.776 161.4C545.251 161.4 542.395 164.253 542.395 167.771C542.395 171.29 545.251 174.142 548.776 174.142C552.3 174.142 555.157 171.29 555.157 167.771Z" fill="#1E1E1E"/>
<path d="M555.157 123.174C555.157 119.655 552.3 116.803 548.776 116.803C545.251 116.803 542.395 119.655 542.395 123.174C542.395 126.693 545.251 129.545 548.776 129.545C552.3 129.545 555.157 126.693 555.157 123.174Z" fill="#1E1E1E"/>
<path d="M555.157 78.5762C555.157 75.0576 552.3 72.2052 548.776 72.2052C545.251 72.2052 542.395 75.0576 542.395 78.5762C542.395 82.0948 545.251 84.9473 548.776 84.9473C552.3 84.9473 555.157 82.0948 555.157 78.5762Z" fill="#1E1E1E"/>
<path d="M555.157 33.9791C555.157 30.4604 552.3 27.608 548.776 27.608C545.251 27.608 542.395 30.4604 542.395 33.9791C542.395 37.4977 545.251 40.3501 548.776 40.3501C552.3 40.3501 555.157 37.4977 555.157 33.9791Z" fill="#1E1E1E"/>
<path d="M599.823 390.758C599.823 387.239 596.966 384.387 593.442 384.387C589.918 384.387 587.061 387.239 587.061 390.758C587.061 394.276 589.918 397.129 593.442 397.129C596.966 397.129 599.823 394.276 599.823 390.758Z" fill="#1E1E1E"/>
<path d="M599.823 346.159C599.823 342.641 596.966 339.788 593.442 339.788C589.918 339.788 587.061 342.641 587.061 346.159C587.061 349.678 589.918 352.53 593.442 352.53C596.966 352.53 599.823 349.678 599.823 346.159Z" fill="#1E1E1E"/>
<path d="M599.823 301.561C599.823 298.043 596.966 295.19 593.442 295.19C589.918 295.19 587.061 298.043 587.061 301.561C587.061 305.08 589.918 307.932 593.442 307.932C596.966 307.932 599.823 305.08 599.823 301.561Z" fill="#1E1E1E"/>
<path d="M599.823 256.966C599.823 253.447 596.966 250.595 593.442 250.595C589.918 250.595 587.061 253.447 587.061 256.966C587.061 260.484 589.918 263.337 593.442 263.337C596.966 263.337 599.823 260.484 599.823 256.966Z" fill="#1E1E1E"/>
<path d="M599.823 212.369C599.823 208.85 596.966 205.997 593.442 205.997C589.918 205.997 587.061 208.85 587.061 212.369C587.061 215.887 589.918 218.74 593.442 218.74C596.966 218.74 599.823 215.887 599.823 212.369Z" fill="#1E1E1E"/>
<path d="M599.823 167.771C599.823 164.253 596.966 161.4 593.442 161.4C589.918 161.4 587.061 164.253 587.061 167.771C587.061 171.29 589.918 174.142 593.442 174.142C596.966 174.142 599.823 171.29 599.823 167.771Z" fill="#1E1E1E"/>
<path d="M599.823 123.174C599.823 119.656 596.966 116.803 593.442 116.803C589.918 116.803 587.061 119.656 587.061 123.174C587.061 126.693 589.918 129.545 593.442 129.545C596.966 129.545 599.823 126.693 599.823 123.174Z" fill="#1E1E1E"/>
<path d="M599.823 78.5763C599.823 75.0576 596.966 72.2052 593.442 72.2052C589.918 72.2052 587.061 75.0576 587.061 78.5763C587.061 82.0949 589.918 84.9473 593.442 84.9473C596.966 84.9473 599.823 82.0949 599.823 78.5763Z" fill="#1E1E1E"/>
<path d="M599.823 33.9791C599.823 30.4605 596.966 27.6081 593.442 27.6081C589.918 27.6081 587.061 30.4605 587.061 33.9791C587.061 37.4977 589.918 40.3501 593.442 40.3501C596.966 40.3501 599.823 37.4977 599.823 33.9791Z" fill="#1E1E1E"/>
<path d="M644.491 390.758C644.491 387.239 641.634 384.387 638.11 384.387C634.586 384.387 631.729 387.239 631.729 390.758C631.729 394.276 634.586 397.129 638.11 397.129C641.634 397.129 644.491 394.276 644.491 390.758Z" fill="#1E1E1E"/>
<path d="M644.491 346.159C644.491 342.641 641.634 339.788 638.11 339.788C634.586 339.788 631.729 342.641 631.729 346.159C631.729 349.678 634.586 352.53 638.11 352.53C641.634 352.53 644.491 349.678 644.491 346.159Z" fill="#1E1E1E"/>
<path d="M644.491 301.561C644.491 298.043 641.634 295.19 638.11 295.19C634.586 295.19 631.729 298.043 631.729 301.561C631.729 305.08 634.586 307.932 638.11 307.932C641.634 307.932 644.491 305.08 644.491 301.561Z" fill="#1E1E1E"/>
<path d="M644.491 256.966C644.491 253.447 641.634 250.595 638.11 250.595C634.586 250.595 631.729 253.447 631.729 256.966C631.729 260.484 634.586 263.337 638.11 263.337C641.634 263.337 644.491 260.484 644.491 256.966Z" fill="#1E1E1E"/>
<path d="M644.491 212.368C644.491 208.85 641.634 205.997 638.11 205.997C634.586 205.997 631.729 208.85 631.729 212.368C631.729 215.887 634.586 218.74 638.11 218.74C641.634 218.74 644.491 215.887 644.491 212.368Z" fill="#1E1E1E"/>
<path d="M644.491 167.771C644.491 164.253 641.634 161.4 638.11 161.4C634.586 161.4 631.729 164.253 631.729 167.771C631.729 171.29 634.586 174.142 638.11 174.142C641.634 174.142 644.491 171.29 644.491 167.771Z" fill="#1E1E1E"/>
<path d="M644.491 123.174C644.491 119.655 641.634 116.803 638.11 116.803C634.586 116.803 631.729 119.655 631.729 123.174C631.729 126.693 634.586 129.545 638.11 129.545C641.634 129.545 644.491 126.693 644.491 123.174Z" fill="#1E1E1E"/>
<path d="M644.491 78.5762C644.491 75.0576 641.634 72.2052 638.11 72.2052C634.586 72.2052 631.729 75.0576 631.729 78.5762C631.729 82.0948 634.586 84.9473 638.11 84.9473C641.634 84.9473 644.491 82.0948 644.491 78.5762Z" fill="#1E1E1E"/>
<path d="M644.491 33.9791C644.491 30.4604 641.634 27.608 638.11 27.608C634.586 27.608 631.729 30.4604 631.729 33.9791C631.729 37.4977 634.586 40.3501 638.11 40.3501C641.634 40.3501 644.491 37.4977 644.491 33.9791Z" fill="#1E1E1E"/>
<path d="M689.161 390.758C689.161 387.239 686.304 384.387 682.78 384.387C679.255 384.387 676.398 387.239 676.398 390.758C676.398 394.276 679.255 397.129 682.78 397.129C686.304 397.129 689.161 394.276 689.161 390.758Z" fill="#1E1E1E"/>
<path d="M689.161 346.159C689.161 342.641 686.304 339.788 682.78 339.788C679.255 339.788 676.398 342.641 676.398 346.159C676.398 349.678 679.255 352.53 682.78 352.53C686.304 352.53 689.161 349.678 689.161 346.159Z" fill="#1E1E1E"/>
<path d="M689.161 301.561C689.161 298.043 686.304 295.19 682.78 295.19C679.255 295.19 676.398 298.043 676.398 301.561C676.398 305.08 679.255 307.932 682.78 307.932C686.304 307.932 689.161 305.08 689.161 301.561Z" fill="#1E1E1E"/>
<path d="M689.161 256.966C689.161 253.447 686.304 250.595 682.78 250.595C679.255 250.595 676.398 253.447 676.398 256.966C676.398 260.484 679.255 263.337 682.78 263.337C686.304 263.337 689.161 260.484 689.161 256.966Z" fill="#1E1E1E"/>
<path d="M689.161 212.368C689.161 208.85 686.304 205.997 682.78 205.997C679.255 205.997 676.398 208.85 676.398 212.368C676.398 215.887 679.255 218.74 682.78 218.74C686.304 218.74 689.161 215.887 689.161 212.368Z" fill="#1E1E1E"/>
<path d="M689.161 167.771C689.161 164.253 686.304 161.4 682.78 161.4C679.255 161.4 676.398 164.253 676.398 167.771C676.398 171.29 679.255 174.142 682.78 174.142C686.304 174.142 689.161 171.29 689.161 167.771Z" fill="#1E1E1E"/>
<path d="M689.161 123.174C689.161 119.655 686.304 116.803 682.78 116.803C679.255 116.803 676.398 119.655 676.398 123.174C676.398 126.693 679.255 129.545 682.78 129.545C686.304 129.545 689.161 126.693 689.161 123.174Z" fill="#1E1E1E"/>
<path d="M689.161 78.5762C689.161 75.0576 686.304 72.2052 682.78 72.2052C679.255 72.2052 676.398 75.0576 676.398 78.5762C676.398 82.0948 679.255 84.9473 682.78 84.9473C686.304 84.9473 689.161 82.0948 689.161 78.5762Z" fill="#1E1E1E"/>
<path d="M689.161 33.9791C689.161 30.4604 686.304 27.6081 682.78 27.6081C679.255 27.6081 676.398 30.4604 676.398 33.9791C676.398 37.4977 679.255 40.3501 682.78 40.3501C686.304 40.3501 689.161 37.4977 689.161 33.9791Z" fill="#1E1E1E"/>
<path d="M733.826 390.758C733.826 387.239 730.969 384.387 727.445 384.387C723.921 384.387 721.064 387.239 721.064 390.758C721.064 394.276 723.921 397.129 727.445 397.129C730.969 397.129 733.826 394.276 733.826 390.758Z" fill="#1E1E1E"/>
<path d="M733.826 346.159C733.826 342.641 730.969 339.788 727.445 339.788C723.921 339.788 721.064 342.641 721.064 346.159C721.064 349.678 723.921 352.53 727.445 352.53C730.969 352.53 733.826 349.678 733.826 346.159Z" fill="#1E1E1E"/>
<path d="M733.826 301.561C733.826 298.043 730.969 295.19 727.445 295.19C723.921 295.19 721.064 298.043 721.064 301.561C721.064 305.08 723.921 307.932 727.445 307.932C730.969 307.932 733.826 305.08 733.826 301.561Z" fill="#1E1E1E"/>
<path d="M733.826 256.966C733.826 253.447 730.969 250.595 727.445 250.595C723.921 250.595 721.064 253.447 721.064 256.966C721.064 260.484 723.921 263.337 727.445 263.337C730.969 263.337 733.826 260.484 733.826 256.966Z" fill="#1E1E1E"/>
<path d="M733.826 212.368C733.826 208.85 730.969 205.997 727.445 205.997C723.921 205.997 721.064 208.85 721.064 212.368C721.064 215.887 723.921 218.74 727.445 218.74C730.969 218.74 733.826 215.887 733.826 212.368Z" fill="#1E1E1E"/>
<path d="M733.826 167.771C733.826 164.253 730.969 161.4 727.445 161.4C723.921 161.4 721.064 164.253 721.064 167.771C721.064 171.29 723.921 174.142 727.445 174.142C730.969 174.142 733.826 171.29 733.826 167.771Z" fill="#1E1E1E"/>
<path d="M733.826 123.174C733.826 119.655 730.969 116.803 727.445 116.803C723.921 116.803 721.064 119.655 721.064 123.174C721.064 126.693 723.921 129.545 727.445 129.545C730.969 129.545 733.826 126.693 733.826 123.174Z" fill="#1E1E1E"/>
<path d="M733.826 78.5762C733.826 75.0576 730.969 72.2052 727.445 72.2052C723.921 72.2052 721.064 75.0576 721.064 78.5762C721.064 82.0948 723.921 84.9473 727.445 84.9473C730.969 84.9473 733.826 82.0948 733.826 78.5762Z" fill="#1E1E1E"/>
<path d="M733.826 33.9791C733.826 30.4604 730.969 27.608 727.445 27.608C723.921 27.608 721.064 30.4604 721.064 33.9791C721.064 37.4977 723.921 40.3501 727.445 40.3501C730.969 40.3501 733.826 37.4977 733.826 33.9791Z" fill="#1E1E1E"/>
<path d="M778.496 390.758C778.496 387.239 775.639 384.387 772.115 384.387C768.59 384.387 765.733 387.239 765.733 390.758C765.733 394.276 768.59 397.129 772.115 397.129C775.639 397.129 778.496 394.276 778.496 390.758Z" fill="#1E1E1E"/>
<path d="M778.496 346.159C778.496 342.641 775.639 339.788 772.115 339.788C768.59 339.788 765.733 342.641 765.733 346.159C765.733 349.678 768.59 352.53 772.115 352.53C775.639 352.53 778.496 349.678 778.496 346.159Z" fill="#1E1E1E"/>
<path d="M778.496 301.561C778.496 298.043 775.639 295.19 772.115 295.19C768.59 295.19 765.733 298.043 765.733 301.561C765.733 305.08 768.59 307.932 772.115 307.932C775.639 307.932 778.496 305.08 778.496 301.561Z" fill="#1E1E1E"/>
<path d="M778.496 256.966C778.496 253.447 775.639 250.595 772.115 250.595C768.59 250.595 765.733 253.447 765.733 256.966C765.733 260.484 768.59 263.337 772.115 263.337C775.639 263.337 778.496 260.484 778.496 256.966Z" fill="#1E1E1E"/>
<path d="M778.496 212.368C778.496 208.85 775.639 205.997 772.115 205.997C768.59 205.997 765.733 208.85 765.733 212.368C765.733 215.887 768.59 218.74 772.115 218.74C775.639 218.74 778.496 215.887 778.496 212.368Z" fill="#1E1E1E"/>
<path d="M778.496 167.771C778.496 164.253 775.639 161.4 772.115 161.4C768.59 161.4 765.733 164.253 765.733 167.771C765.733 171.29 768.59 174.142 772.115 174.142C775.639 174.142 778.496 171.29 778.496 167.771Z" fill="#1E1E1E"/>
<path d="M778.496 123.174C778.496 119.655 775.639 116.803 772.115 116.803C768.59 116.803 765.733 119.655 765.733 123.174C765.733 126.693 768.59 129.545 772.115 129.545C775.639 129.545 778.496 126.693 778.496 123.174Z" fill="#1E1E1E"/>
<path d="M778.496 78.5762C778.496 75.0576 775.639 72.2052 772.115 72.2052C768.59 72.2052 765.733 75.0576 765.733 78.5762C765.733 82.0948 768.59 84.9473 772.115 84.9473C775.639 84.9473 778.496 82.0948 778.496 78.5762Z" fill="#1E1E1E"/>
<path d="M778.496 33.9791C778.496 30.4604 775.639 27.608 772.115 27.608C768.59 27.608 765.733 30.4604 765.733 33.9791C765.733 37.4977 768.59 40.3501 772.115 40.3501C775.639 40.3501 778.496 37.4977 778.496 33.9791Z" fill="#1E1E1E"/>
<path d="M823.164 390.758C823.164 387.239 820.307 384.387 816.782 384.387C813.258 384.387 810.401 387.239 810.401 390.758C810.401 394.276 813.258 397.129 816.782 397.129C820.307 397.129 823.164 394.276 823.164 390.758Z" fill="#1E1E1E"/>
<path d="M823.164 346.159C823.164 342.641 820.307 339.788 816.783 339.788C813.258 339.788 810.401 342.641 810.401 346.159C810.401 349.678 813.258 352.53 816.783 352.53C820.307 352.53 823.164 349.678 823.164 346.159Z" fill="#1E1E1E"/>
<path d="M823.164 301.561C823.164 298.043 820.307 295.19 816.782 295.19C813.258 295.19 810.401 298.043 810.401 301.561C810.401 305.08 813.258 307.932 816.782 307.932C820.307 307.932 823.164 305.08 823.164 301.561Z" fill="#1E1E1E"/>
<path d="M823.164 256.966C823.164 253.447 820.307 250.595 816.783 250.595C813.258 250.595 810.401 253.447 810.401 256.966C810.401 260.484 813.258 263.337 816.783 263.337C820.307 263.337 823.164 260.484 823.164 256.966Z" fill="#1E1E1E"/>
<path d="M823.164 212.368C823.164 208.85 820.307 205.997 816.783 205.997C813.258 205.997 810.401 208.85 810.401 212.368C810.401 215.887 813.258 218.74 816.783 218.74C820.307 218.74 823.164 215.887 823.164 212.368Z" fill="#1E1E1E"/>
<path d="M823.164 167.771C823.164 164.253 820.307 161.4 816.783 161.4C813.258 161.4 810.401 164.253 810.401 167.771C810.401 171.29 813.258 174.142 816.783 174.142C820.307 174.142 823.164 171.29 823.164 167.771Z" fill="#1E1E1E"/>
<path d="M823.164 123.174C823.164 119.655 820.307 116.803 816.782 116.803C813.258 116.803 810.401 119.655 810.401 123.174C810.401 126.693 813.258 129.545 816.782 129.545C820.307 129.545 823.164 126.693 823.164 123.174Z" fill="#1E1E1E"/>
<path d="M823.164 78.5762C823.164 75.0576 820.307 72.2052 816.783 72.2052C813.258 72.2052 810.401 75.0576 810.401 78.5762C810.401 82.0948 813.258 84.9473 816.783 84.9473C820.307 84.9473 823.164 82.0948 823.164 78.5762Z" fill="#1E1E1E"/>
<path d="M823.164 33.9791C823.164 30.4604 820.307 27.608 816.783 27.608C813.258 27.608 810.401 30.4604 810.401 33.9791C810.401 37.4977 813.258 40.3501 816.783 40.3501C820.307 40.3501 823.164 37.4977 823.164 33.9791Z" fill="#1E1E1E"/>
<path d="M850.815 424.736L1276.22 424.736L1276.22 849.471L850.815 849.471L850.815 424.736Z" fill="#FFFDEE"/>
<path d="M1063.52 424.736L1276.22 424.736L1276.22 849.471L1063.52 849.471L1063.52 424.736Z" fill="#1E1E1E"/>
<path d="M1063.52 424.736L1276.22 424.736L1276.22 849.471L1063.52 849.471L1063.52 424.736Z" fill="#1E1E1E"/>
<path d="M1276.23 1274.21L1701.64 1274.21L1701.64 1698.94L1276.23 1698.94L1276.23 1274.21Z" fill="#FFFDEE"/>
<path d="M1701.64 1698.94H1276.23L1701.64 1274.21V1698.94Z" fill="#1E1E1E"/>
<path d="M850.814 1274.2L850.814 1698.94L425.405 1698.94L425.405 1274.2L850.814 1274.2Z" fill="#546EF3"/>
<path d="M1276.23 1274.21H1701.64V849.471H1276.23V1274.21Z" fill="#1E1E1E"/>
<path fill-rule="evenodd" clip-rule="evenodd" d="M1276.23 894.52V864.488L1686.59 1274.21H1656.51L1276.23 894.52ZM1701.64 1229.16V1259.19L1291.27 849.471H1321.35L1701.64 1229.16ZM1701.64 1199.12V1169.09L1381.51 849.471H1351.43L1701.64 1199.12ZM1701.64 1109.02V1139.06L1411.59 849.471H1441.67L1701.64 1109.02ZM1701.64 1078.99V1048.96L1501.83 849.471H1471.75L1701.64 1078.99ZM1701.64 988.892V1018.92L1531.91 849.471H1561.99L1701.64 988.892ZM1701.64 958.857V928.826L1622.15 849.471H1592.07L1701.64 958.857ZM1701.64 868.757V898.791L1652.24 849.471H1682.32L1701.64 868.757ZM1276.23 924.554V954.589L1596.35 1274.21H1626.43L1276.23 924.554ZM1276.23 1014.66V984.62L1566.27 1274.21H1536.19L1276.23 1014.66ZM1276.23 1044.69V1074.72L1476.03 1274.21H1506.11L1276.23 1044.69ZM1276.23 1134.79V1104.76L1445.95 1274.21H1415.86L1276.23 1134.79ZM1276.23 1164.82V1194.86L1355.7 1274.21H1385.79L1276.23 1164.82ZM1276.23 1254.92V1224.89L1325.62 1274.21H1295.54L1276.23 1254.92Z" fill="#8EB5F0"/>
<path d="M425.409 1698.94L0 1698.94L-1.85681e-05 1274.21L425.409 1274.21L425.409 1698.94Z" fill="#8EB5F0"/>
<path d="M-0.000469681 1698.94C55.865 1698.94 111.183 1687.95 162.796 1666.61C214.409 1645.27 261.306 1613.98 300.808 1574.54C340.313 1535.1 371.648 1488.28 393.027 1436.75C414.406 1385.21 425.409 1329.98 425.409 1274.21H-0.000488281L-0.000469681 1698.94Z" fill="#FFFDEE"/>
<path d="M850.815 849.471L1276.22 849.471L1276.22 1274.21L850.815 1274.21L850.815 849.471Z" fill="#8EB5F0"/>
<path d="M1064.28 1136.92L989.075 1061.84L1064.28 986.756L1139.48 1061.84L1064.28 1136.92Z" fill="#546EF3"/>
<path d="M425.408 1274.21H850.817V849.471H425.408L425.408 1274.21Z" fill="#8EB5F0"/>
<path d="M850.816 1274.21C794.95 1274.21 739.633 1263.22 688.021 1241.88C636.408 1220.53 589.512 1189.24 550.008 1149.8C510.506 1110.36 479.171 1063.54 457.792 1012.01C436.413 960.478 425.41 905.248 425.41 849.471H850.816V1274.21Z" fill="#546EF3"/>
<path d="M0.000579834 1274.21H425.41L425.41 849.471H0.000579834L0.000579834 1274.21Z" fill="#546EF3"/>
<path d="M319.054 1061.83C319.054 1120.47 271.438 1168.01 212.702 1168.01C153.965 1168.01 106.35 1120.47 106.35 1061.83C106.35 1003.18 153.965 955.642 212.702 955.642C271.438 955.642 319.054 1003.18 319.054 1061.83Z" fill="#FFFDEE"/>
<path d="M425.408 849.471H850.817V424.736L425.408 424.736L425.408 849.471Z" fill="#546EF3"/>
<path d="M744.465 637.102C744.465 695.746 696.849 743.286 638.113 743.286C579.376 743.286 531.761 695.746 531.761 637.102C531.761 578.458 579.376 530.918 638.113 530.918C696.849 530.918 744.465 578.458 744.465 637.102Z" fill="#1E1E1E"/>
<path d="M851.463 1698.94H425.731V2124H851.463V1698.94Z" fill="#FFFDEE"/>
<path d="M425.731 2124H851.463L425.731 1698.94V2124Z" fill="#1E1E1E"/>
<path d="M425.731 1698.94H0V2124H425.731V1698.94Z" fill="#FFFDEE"/>
<path d="M1.86142e-05 2124H425.731L0 1698.94L1.86142e-05 2124Z" fill="#1E1E1E"/>
<path d="M1277.19 1698.94L1702.93 1698.94L1702.93 2124L1277.19 2124L1277.19 1698.94Z" fill="#8EB5F0"/>
<path d="M1702.93 1698.94C1647.02 1698.94 1591.66 1709.94 1540.01 1731.3C1488.35 1752.66 1441.42 1783.97 1401.89 1823.44C1362.35 1862.91 1331 1909.77 1309.6 1961.34C1288.21 2012.91 1277.19 2068.18 1277.19 2124H1702.93V1698.94Z" fill="#546EF3"/>
<path d="M1277.19 2124L851.463 2124L851.463 1698.94L1277.19 1698.94L1277.19 2124Z" fill="#8EB5F0"/>
<path d="M891.908 2090C891.908 2086.47 889.049 2083.62 885.522 2083.62C881.995 2083.62 879.136 2086.47 879.136 2090C879.136 2093.52 881.995 2096.37 885.522 2096.37C889.049 2096.37 891.908 2093.52 891.908 2090Z" fill="#1E1E1E"/>
<path d="M891.908 2045.36C891.908 2041.84 889.048 2038.99 885.522 2038.99C881.995 2038.99 879.136 2041.84 879.136 2045.36C879.136 2048.88 881.995 2051.74 885.522 2051.74C889.048 2051.74 891.908 2048.88 891.908 2045.36Z" fill="#1E1E1E"/>
<path d="M891.908 2000.73C891.908 1997.21 889.049 1994.36 885.522 1994.36C881.995 1994.36 879.136 1997.21 879.136 2000.73C879.136 2004.25 881.995 2007.11 885.522 2007.11C889.049 2007.11 891.908 2004.25 891.908 2000.73Z" fill="#1E1E1E"/>
<path d="M891.908 1956.1C891.908 1952.58 889.049 1949.73 885.522 1949.73C881.995 1949.73 879.136 1952.58 879.136 1956.1C879.136 1959.62 881.995 1962.48 885.522 1962.48C889.049 1962.48 891.908 1959.62 891.908 1956.1Z" fill="#1E1E1E"/>
<path d="M891.908 1911.47C891.908 1907.95 889.049 1905.1 885.522 1905.1C881.995 1905.1 879.136 1907.95 879.136 1911.47C879.136 1914.99 881.995 1917.85 885.522 1917.85C889.049 1917.85 891.908 1914.99 891.908 1911.47Z" fill="#1E1E1E"/>
<path d="M891.908 1866.84C891.908 1863.32 889.048 1860.46 885.522 1860.46C881.995 1860.46 879.136 1863.32 879.136 1866.84C879.136 1870.36 881.995 1873.21 885.522 1873.21C889.048 1873.21 891.908 1870.36 891.908 1866.84Z" fill="#1E1E1E"/>
<path d="M891.908 1822.21C891.908 1818.69 889.048 1815.83 885.522 1815.83C881.995 1815.83 879.136 1818.69 879.136 1822.21C879.136 1825.73 881.995 1828.58 885.522 1828.58C889.048 1828.58 891.908 1825.73 891.908 1822.21Z" fill="#1E1E1E"/>
<path d="M891.908 1777.58C891.908 1774.06 889.049 1771.2 885.522 1771.2C881.995 1771.2 879.136 1774.06 879.136 1777.58C879.136 1781.1 881.995 1783.95 885.522 1783.95C889.049 1783.95 891.908 1781.1 891.908 1777.58Z" fill="#1E1E1E"/>
<path d="M891.908 1732.95C891.908 1729.43 889.049 1726.57 885.522 1726.57C881.995 1726.57 879.136 1729.43 879.136 1732.95C879.136 1736.47 881.995 1739.32 885.522 1739.32C889.049 1739.32 891.908 1736.47 891.908 1732.95Z" fill="#1E1E1E"/>
<path d="M936.609 2090C936.609 2086.47 933.75 2083.62 930.223 2083.62C926.696 2083.62 923.837 2086.47 923.837 2090C923.837 2093.52 926.696 2096.37 930.223 2096.37C933.75 2096.37 936.609 2093.52 936.609 2090Z" fill="#1E1E1E"/>
<path d="M936.609 2045.36C936.609 2041.84 933.75 2038.99 930.223 2038.99C926.696 2038.99 923.837 2041.84 923.837 2045.36C923.837 2048.88 926.696 2051.74 930.223 2051.74C933.75 2051.74 936.609 2048.88 936.609 2045.36Z" fill="#1E1E1E"/>
<path d="M936.609 2000.73C936.609 1997.21 933.75 1994.36 930.223 1994.36C926.696 1994.36 923.837 1997.21 923.837 2000.73C923.837 2004.25 926.696 2007.11 930.223 2007.11C933.75 2007.11 936.609 2004.25 936.609 2000.73Z" fill="#1E1E1E"/>
<path d="M936.609 1956.1C936.609 1952.58 933.75 1949.73 930.223 1949.73C926.696 1949.73 923.837 1952.58 923.837 1956.1C923.837 1959.62 926.696 1962.48 930.223 1962.48C933.75 1962.48 936.609 1959.62 936.609 1956.1Z" fill="#1E1E1E"/>
<path d="M936.609 1911.47C936.609 1907.95 933.75 1905.1 930.223 1905.1C926.696 1905.1 923.837 1907.95 923.837 1911.47C923.837 1914.99 926.696 1917.85 930.223 1917.85C933.75 1917.85 936.609 1914.99 936.609 1911.47Z" fill="#1E1E1E"/>
<path d="M936.609 1866.84C936.609 1863.32 933.75 1860.46 930.223 1860.46C926.696 1860.46 923.837 1863.32 923.837 1866.84C923.837 1870.36 926.696 1873.21 930.223 1873.21C933.75 1873.21 936.609 1870.36 936.609 1866.84Z" fill="#1E1E1E"/>
<path d="M936.609 1822.21C936.609 1818.69 933.75 1815.83 930.223 1815.83C926.696 1815.83 923.837 1818.69 923.837 1822.21C923.837 1825.73 926.696 1828.58 930.223 1828.58C933.75 1828.58 936.609 1825.73 936.609 1822.21Z" fill="#1E1E1E"/>
<path d="M936.609 1777.58C936.609 1774.06 933.75 1771.2 930.223 1771.2C926.696 1771.2 923.837 1774.06 923.837 1777.58C923.837 1781.1 926.696 1783.95 930.223 1783.95C933.75 1783.95 936.609 1781.1 936.609 1777.58Z" fill="#1E1E1E"/>
<path d="M936.609 1732.95C936.609 1729.43 933.75 1726.57 930.223 1726.57C926.696 1726.57 923.837 1729.43 923.837 1732.95C923.837 1736.47 926.696 1739.32 930.223 1739.32C933.75 1739.32 936.609 1736.47 936.609 1732.95Z" fill="#1E1E1E"/>
<path d="M981.31 2090C981.31 2086.47 978.451 2083.62 974.924 2083.62C971.397 2083.62 968.538 2086.47 968.538 2090C968.538 2093.52 971.397 2096.37 974.924 2096.37C978.451 2096.37 981.31 2093.52 981.31 2090Z" fill="#1E1E1E"/>
<path d="M981.31 2045.36C981.31 2041.84 978.451 2038.99 974.924 2038.99C971.397 2038.99 968.538 2041.84 968.538 2045.36C968.538 2048.88 971.397 2051.74 974.924 2051.74C978.451 2051.74 981.31 2048.88 981.31 2045.36Z" fill="#1E1E1E"/>
<path d="M981.31 2000.73C981.31 1997.21 978.451 1994.36 974.924 1994.36C971.397 1994.36 968.538 1997.21 968.538 2000.73C968.538 2004.25 971.397 2007.11 974.924 2007.11C978.451 2007.11 981.31 2004.25 981.31 2000.73Z" fill="#1E1E1E"/>
<path d="M981.31 1956.1C981.31 1952.58 978.451 1949.73 974.924 1949.73C971.397 1949.73 968.538 1952.58 968.538 1956.1C968.538 1959.62 971.397 1962.48 974.924 1962.48C978.451 1962.48 981.31 1959.62 981.31 1956.1Z" fill="#1E1E1E"/>
<path d="M981.31 1911.47C981.31 1907.95 978.451 1905.1 974.924 1905.1C971.397 1905.1 968.538 1907.95 968.538 1911.47C968.538 1914.99 971.397 1917.85 974.924 1917.85C978.451 1917.85 981.31 1914.99 981.31 1911.47Z" fill="#1E1E1E"/>
<path d="M981.31 1866.84C981.31 1863.32 978.451 1860.46 974.924 1860.46C971.397 1860.46 968.538 1863.32 968.538 1866.84C968.538 1870.36 971.397 1873.21 974.924 1873.21C978.451 1873.21 981.31 1870.36 981.31 1866.84Z" fill="#1E1E1E"/>
<path d="M981.31 1822.21C981.31 1818.69 978.451 1815.83 974.924 1815.83C971.397 1815.83 968.538 1818.69 968.538 1822.21C968.538 1825.73 971.397 1828.58 974.924 1828.58C978.451 1828.58 981.31 1825.73 981.31 1822.21Z" fill="#1E1E1E"/>
<path d="M981.31 1777.58C981.31 1774.06 978.451 1771.2 974.924 1771.2C971.397 1771.2 968.538 1774.06 968.538 1777.58C968.538 1781.1 971.397 1783.95 974.924 1783.95C978.451 1783.95 981.31 1781.1 981.31 1777.58Z" fill="#1E1E1E"/>
<path d="M981.31 1732.95C981.31 1729.43 978.451 1726.57 974.924 1726.57C971.397 1726.57 968.538 1729.43 968.538 1732.95C968.538 1736.47 971.397 1739.32 974.924 1739.32C978.451 1739.32 981.31 1736.47 981.31 1732.95Z" fill="#1E1E1E"/>
<path d="M1026.01 2090C1026.01 2086.47 1023.15 2083.62 1019.62 2083.62C1016.1 2083.62 1013.24 2086.47 1013.24 2090C1013.24 2093.52 1016.1 2096.37 1019.62 2096.37C1023.15 2096.37 1026.01 2093.52 1026.01 2090Z" fill="#1E1E1E"/>
<path d="M1026.01 2045.36C1026.01 2041.84 1023.15 2038.99 1019.62 2038.99C1016.1 2038.99 1013.24 2041.84 1013.24 2045.36C1013.24 2048.88 1016.1 2051.74 1019.62 2051.74C1023.15 2051.74 1026.01 2048.88 1026.01 2045.36Z" fill="#1E1E1E"/>
<path d="M1026.01 2000.73C1026.01 1997.21 1023.15 1994.36 1019.62 1994.36C1016.1 1994.36 1013.24 1997.21 1013.24 2000.73C1013.24 2004.25 1016.1 2007.11 1019.62 2007.11C1023.15 2007.11 1026.01 2004.25 1026.01 2000.73Z" fill="#1E1E1E"/>
<path d="M1026.01 1956.1C1026.01 1952.58 1023.15 1949.73 1019.62 1949.73C1016.1 1949.73 1013.24 1952.58 1013.24 1956.1C1013.24 1959.62 1016.1 1962.48 1019.62 1962.48C1023.15 1962.48 1026.01 1959.62 1026.01 1956.1Z" fill="#1E1E1E"/>
<path d="M1026.01 1911.47C1026.01 1907.95 1023.15 1905.1 1019.62 1905.1C1016.1 1905.1 1013.24 1907.95 1013.24 1911.47C1013.24 1914.99 1016.1 1917.85 1019.62 1917.85C1023.15 1917.85 1026.01 1914.99 1026.01 1911.47Z" fill="#1E1E1E"/>
<path d="M1026.01 1866.84C1026.01 1863.32 1023.15 1860.46 1019.62 1860.46C1016.1 1860.46 1013.24 1863.32 1013.24 1866.84C1013.24 1870.36 1016.1 1873.21 1019.62 1873.21C1023.15 1873.21 1026.01 1870.36 1026.01 1866.84Z" fill="#1E1E1E"/>
<path d="M1026.01 1822.21C1026.01 1818.69 1023.15 1815.83 1019.62 1815.83C1016.1 1815.83 1013.24 1818.69 1013.24 1822.21C1013.24 1825.73 1016.1 1828.58 1019.62 1828.58C1023.15 1828.58 1026.01 1825.73 1026.01 1822.21Z" fill="#1E1E1E"/>
<path d="M1026.01 1777.58C1026.01 1774.06 1023.15 1771.2 1019.62 1771.2C1016.1 1771.2 1013.24 1774.06 1013.24 1777.58C1013.24 1781.1 1016.1 1783.95 1019.62 1783.95C1023.15 1783.95 1026.01 1781.1 1026.01 1777.58Z" fill="#1E1E1E"/>
<path d="M1026.01 1732.95C1026.01 1729.43 1023.15 1726.57 1019.62 1726.57C1016.1 1726.57 1013.24 1729.43 1013.24 1732.95C1013.24 1736.47 1016.1 1739.32 1019.62 1739.32C1023.15 1739.32 1026.01 1736.47 1026.01 1732.95Z" fill="#1E1E1E"/>
<path d="M1070.71 2090C1070.71 2086.47 1067.86 2083.62 1064.33 2083.62C1060.8 2083.62 1057.94 2086.47 1057.94 2090C1057.94 2093.52 1060.8 2096.37 1064.33 2096.37C1067.86 2096.37 1070.71 2093.52 1070.71 2090Z" fill="#1E1E1E"/>
<path d="M1070.71 2045.36C1070.71 2041.84 1067.86 2038.99 1064.33 2038.99C1060.8 2038.99 1057.94 2041.84 1057.94 2045.36C1057.94 2048.88 1060.8 2051.74 1064.33 2051.74C1067.86 2051.74 1070.71 2048.88 1070.71 2045.36Z" fill="#1E1E1E"/>
<path d="M1070.71 2000.73C1070.71 1997.21 1067.86 1994.36 1064.33 1994.36C1060.8 1994.36 1057.94 1997.21 1057.94 2000.73C1057.94 2004.25 1060.8 2007.11 1064.33 2007.11C1067.86 2007.11 1070.71 2004.25 1070.71 2000.73Z" fill="#1E1E1E"/>
<path d="M1070.71 1956.1C1070.71 1952.58 1067.86 1949.73 1064.33 1949.73C1060.8 1949.73 1057.94 1952.58 1057.94 1956.1C1057.94 1959.62 1060.8 1962.48 1064.33 1962.48C1067.86 1962.48 1070.71 1959.62 1070.71 1956.1Z" fill="#1E1E1E"/>
<path d="M1070.71 1911.47C1070.71 1907.95 1067.86 1905.1 1064.33 1905.1C1060.8 1905.1 1057.94 1907.95 1057.94 1911.47C1057.94 1914.99 1060.8 1917.85 1064.33 1917.85C1067.86 1917.85 1070.71 1914.99 1070.71 1911.47Z" fill="#1E1E1E"/>
<path d="M1070.71 1866.84C1070.71 1863.32 1067.86 1860.46 1064.33 1860.46C1060.8 1860.46 1057.94 1863.32 1057.94 1866.84C1057.94 1870.36 1060.8 1873.21 1064.33 1873.21C1067.86 1873.21 1070.71 1870.36 1070.71 1866.84Z" fill="#1E1E1E"/>
<path d="M1070.71 1822.21C1070.71 1818.69 1067.86 1815.83 1064.33 1815.83C1060.8 1815.83 1057.94 1818.69 1057.94 1822.21C1057.94 1825.73 1060.8 1828.58 1064.33 1828.58C1067.86 1828.58 1070.71 1825.73 1070.71 1822.21Z" fill="#1E1E1E"/>
<path d="M1070.71 1777.58C1070.71 1774.06 1067.86 1771.2 1064.33 1771.2C1060.8 1771.2 1057.94 1774.06 1057.94 1777.58C1057.94 1781.1 1060.8 1783.95 1064.33 1783.95C1067.86 1783.95 1070.71 1781.1 1070.71 1777.58Z" fill="#1E1E1E"/>
<path d="M1070.71 1732.95C1070.71 1729.43 1067.86 1726.57 1064.33 1726.57C1060.8 1726.57 1057.94 1729.43 1057.94 1732.95C1057.94 1736.47 1060.8 1739.32 1064.33 1739.32C1067.86 1739.32 1070.71 1736.47 1070.71 1732.95Z" fill="#1E1E1E"/>
<path d="M1115.42 2090C1115.42 2086.47 1112.56 2083.62 1109.03 2083.62C1105.5 2083.62 1102.64 2086.47 1102.64 2090C1102.64 2093.52 1105.5 2096.37 1109.03 2096.37C1112.56 2096.37 1115.42 2093.52 1115.42 2090Z" fill="#1E1E1E"/>
<path d="M1115.42 2045.36C1115.42 2041.84 1112.56 2038.99 1109.03 2038.99C1105.5 2038.99 1102.64 2041.84 1102.64 2045.36C1102.64 2048.88 1105.5 2051.74 1109.03 2051.74C1112.56 2051.74 1115.42 2048.88 1115.42 2045.36Z" fill="#1E1E1E"/>
<path d="M1115.42 2000.73C1115.42 1997.21 1112.56 1994.36 1109.03 1994.36C1105.5 1994.36 1102.64 1997.21 1102.64 2000.73C1102.64 2004.25 1105.5 2007.11 1109.03 2007.11C1112.56 2007.11 1115.42 2004.25 1115.42 2000.73Z" fill="#1E1E1E"/>
<path d="M1115.42 1956.1C1115.42 1952.58 1112.56 1949.73 1109.03 1949.73C1105.5 1949.73 1102.64 1952.58 1102.64 1956.1C1102.64 1959.62 1105.5 1962.48 1109.03 1962.48C1112.56 1962.48 1115.42 1959.62 1115.42 1956.1Z" fill="#1E1E1E"/>
<path d="M1115.42 1911.47C1115.42 1907.95 1112.56 1905.1 1109.03 1905.1C1105.5 1905.1 1102.64 1907.95 1102.64 1911.47C1102.64 1914.99 1105.5 1917.85 1109.03 1917.85C1112.56 1917.85 1115.42 1914.99 1115.42 1911.47Z" fill="#1E1E1E"/>
<path d="M1115.42 1866.84C1115.42 1863.32 1112.56 1860.46 1109.03 1860.46C1105.5 1860.46 1102.64 1863.32 1102.64 1866.84C1102.64 1870.36 1105.5 1873.21 1109.03 1873.21C1112.56 1873.21 1115.42 1870.36 1115.42 1866.84Z" fill="#1E1E1E"/>
<path d="M1115.42 1822.21C1115.42 1818.69 1112.56 1815.83 1109.03 1815.83C1105.5 1815.83 1102.64 1818.69 1102.64 1822.21C1102.64 1825.73 1105.5 1828.58 1109.03 1828.58C1112.56 1828.58 1115.42 1825.73 1115.42 1822.21Z" fill="#1E1E1E"/>
<path d="M1115.42 1777.58C1115.42 1774.06 1112.56 1771.2 1109.03 1771.2C1105.5 1771.2 1102.64 1774.06 1102.64 1777.58C1102.64 1781.1 1105.5 1783.95 1109.03 1783.95C1112.56 1783.95 1115.42 1781.1 1115.42 1777.58Z" fill="#1E1E1E"/>
<path d="M1115.42 1732.95C1115.42 1729.43 1112.56 1726.57 1109.03 1726.57C1105.5 1726.57 1102.64 1729.43 1102.64 1732.95C1102.64 1736.47 1105.5 1739.32 1109.03 1739.32C1112.56 1739.32 1115.42 1736.47 1115.42 1732.95Z" fill="#1E1E1E"/>
<path d="M1160.12 2090C1160.12 2086.47 1157.26 2083.62 1153.73 2083.62C1150.2 2083.62 1147.34 2086.47 1147.34 2090C1147.34 2093.52 1150.2 2096.37 1153.73 2096.37C1157.26 2096.37 1160.12 2093.52 1160.12 2090Z" fill="#1E1E1E"/>
<path d="M1160.12 2045.36C1160.12 2041.84 1157.26 2038.99 1153.73 2038.99C1150.2 2038.99 1147.34 2041.84 1147.34 2045.36C1147.34 2048.88 1150.2 2051.74 1153.73 2051.74C1157.26 2051.74 1160.12 2048.88 1160.12 2045.36Z" fill="#1E1E1E"/>
<path d="M1160.12 2000.73C1160.12 1997.21 1157.26 1994.36 1153.73 1994.36C1150.2 1994.36 1147.34 1997.21 1147.34 2000.73C1147.34 2004.25 1150.2 2007.11 1153.73 2007.11C1157.26 2007.11 1160.12 2004.25 1160.12 2000.73Z" fill="#1E1E1E"/>
<path d="M1160.12 1956.1C1160.12 1952.58 1157.26 1949.73 1153.73 1949.73C1150.2 1949.73 1147.34 1952.58 1147.34 1956.1C1147.34 1959.62 1150.2 1962.48 1153.73 1962.48C1157.26 1962.48 1160.12 1959.62 1160.12 1956.1Z" fill="#1E1E1E"/>
<path d="M1160.12 1911.47C1160.12 1907.95 1157.26 1905.1 1153.73 1905.1C1150.2 1905.1 1147.34 1907.95 1147.34 1911.47C1147.34 1914.99 1150.2 1917.85 1153.73 1917.85C1157.26 1917.85 1160.12 1914.99 1160.12 1911.47Z" fill="#1E1E1E"/>
<path d="M1160.12 1866.84C1160.12 1863.32 1157.26 1860.46 1153.73 1860.46C1150.2 1860.46 1147.34 1863.32 1147.34 1866.84C1147.34 1870.36 1150.2 1873.21 1153.73 1873.21C1157.26 1873.21 1160.12 1870.36 1160.12 1866.84Z" fill="#1E1E1E"/>
<path d="M1160.12 1822.21C1160.12 1818.69 1157.26 1815.83 1153.73 1815.83C1150.2 1815.83 1147.34 1818.69 1147.34 1822.21C1147.34 1825.73 1150.2 1828.58 1153.73 1828.58C1157.26 1828.58 1160.12 1825.73 1160.12 1822.21Z" fill="#1E1E1E"/>
<path d="M1160.12 1777.58C1160.12 1774.06 1157.26 1771.2 1153.73 1771.2C1150.2 1771.2 1147.34 1774.06 1147.34 1777.58C1147.34 1781.1 1150.2 1783.95 1153.73 1783.95C1157.26 1783.95 1160.12 1781.1 1160.12 1777.58Z" fill="#1E1E1E"/>
<path d="M1160.12 1732.95C1160.12 1729.43 1157.26 1726.57 1153.73 1726.57C1150.2 1726.57 1147.34 1729.43 1147.34 1732.95C1147.34 1736.47 1150.2 1739.32 1153.73 1739.32C1157.26 1739.32 1160.12 1736.47 1160.12 1732.95Z" fill="#1E1E1E"/>
<path d="M1204.82 2090C1204.82 2086.47 1201.96 2083.62 1198.43 2083.62C1194.9 2083.62 1192.05 2086.47 1192.05 2090C1192.05 2093.52 1194.9 2096.37 1198.43 2096.37C1201.96 2096.37 1204.82 2093.52 1204.82 2090Z" fill="#1E1E1E"/>
<path d="M1204.82 2045.36C1204.82 2041.84 1201.96 2038.99 1198.43 2038.99C1194.9 2038.99 1192.05 2041.84 1192.05 2045.36C1192.05 2048.88 1194.9 2051.74 1198.43 2051.74C1201.96 2051.74 1204.82 2048.88 1204.82 2045.36Z" fill="#1E1E1E"/>
<path d="M1204.82 2000.73C1204.82 1997.21 1201.96 1994.36 1198.43 1994.36C1194.9 1994.36 1192.05 1997.21 1192.05 2000.73C1192.05 2004.25 1194.9 2007.11 1198.43 2007.11C1201.96 2007.11 1204.82 2004.25 1204.82 2000.73Z" fill="#1E1E1E"/>
<path d="M1204.82 1956.1C1204.82 1952.58 1201.96 1949.73 1198.43 1949.73C1194.9 1949.73 1192.05 1952.58 1192.05 1956.1C1192.05 1959.62 1194.9 1962.48 1198.43 1962.48C1201.96 1962.48 1204.82 1959.62 1204.82 1956.1Z" fill="#1E1E1E"/>
<path d="M1204.82 1911.47C1204.82 1907.95 1201.96 1905.1 1198.43 1905.1C1194.9 1905.1 1192.05 1907.95 1192.05 1911.47C1192.05 1914.99 1194.9 1917.85 1198.43 1917.85C1201.96 1917.85 1204.82 1914.99 1204.82 1911.47Z" fill="#1E1E1E"/>
<path d="M1204.82 1866.84C1204.82 1863.32 1201.96 1860.46 1198.43 1860.46C1194.9 1860.46 1192.05 1863.32 1192.05 1866.84C1192.05 1870.36 1194.9 1873.21 1198.43 1873.21C1201.96 1873.21 1204.82 1870.36 1204.82 1866.84Z" fill="#1E1E1E"/>
<path d="M1204.82 1822.21C1204.82 1818.69 1201.96 1815.83 1198.43 1815.83C1194.9 1815.83 1192.05 1818.69 1192.05 1822.21C1192.05 1825.73 1194.9 1828.58 1198.43 1828.58C1201.96 1828.58 1204.82 1825.73 1204.82 1822.21Z" fill="#1E1E1E"/>
<path d="M1204.82 1777.58C1204.82 1774.06 1201.96 1771.2 1198.43 1771.2C1194.9 1771.2 1192.05 1774.06 1192.05 1777.58C1192.05 1781.1 1194.9 1783.95 1198.43 1783.95C1201.96 1783.95 1204.82 1781.1 1204.82 1777.58Z" fill="#1E1E1E"/>
<path d="M1204.82 1732.95C1204.82 1729.43 1201.96 1726.57 1198.43 1726.57C1194.9 1726.57 1192.05 1729.43 1192.05 1732.95C1192.05 1736.47 1194.9 1739.32 1198.43 1739.32C1201.96 1739.32 1204.82 1736.47 1204.82 1732.95Z" fill="#1E1E1E"/>
<path d="M1249.52 2090C1249.52 2086.47 1246.66 2083.62 1243.14 2083.62C1239.61 2083.62 1236.75 2086.47 1236.75 2090C1236.75 2093.52 1239.61 2096.37 1243.14 2096.37C1246.66 2096.37 1249.52 2093.52 1249.52 2090Z" fill="#1E1E1E"/>
<path d="M1249.52 2045.36C1249.52 2041.84 1246.66 2038.99 1243.13 2038.99C1239.61 2038.99 1236.75 2041.84 1236.75 2045.36C1236.75 2048.88 1239.61 2051.74 1243.13 2051.74C1246.66 2051.74 1249.52 2048.88 1249.52 2045.36Z" fill="#1E1E1E"/>
<path d="M1249.52 2000.73C1249.52 1997.21 1246.66 1994.36 1243.13 1994.36C1239.61 1994.36 1236.75 1997.21 1236.75 2000.73C1236.75 2004.25 1239.61 2007.11 1243.13 2007.11C1246.66 2007.11 1249.52 2004.25 1249.52 2000.73Z" fill="#1E1E1E"/>
<path d="M1249.52 1956.1C1249.52 1952.58 1246.66 1949.73 1243.13 1949.73C1239.61 1949.73 1236.75 1952.58 1236.75 1956.1C1236.75 1959.62 1239.61 1962.48 1243.13 1962.48C1246.66 1962.48 1249.52 1959.62 1249.52 1956.1Z" fill="#1E1E1E"/>
<path d="M1249.52 1911.47C1249.52 1907.95 1246.66 1905.1 1243.13 1905.1C1239.61 1905.1 1236.75 1907.95 1236.75 1911.47C1236.75 1914.99 1239.61 1917.85 1243.13 1917.85C1246.66 1917.85 1249.52 1914.99 1249.52 1911.47Z" fill="#1E1E1E"/>
<path d="M1249.52 1866.84C1249.52 1863.32 1246.66 1860.46 1243.13 1860.46C1239.61 1860.46 1236.75 1863.32 1236.75 1866.84C1236.75 1870.36 1239.61 1873.21 1243.13 1873.21C1246.66 1873.21 1249.52 1870.36 1249.52 1866.84Z" fill="#1E1E1E"/>
<path d="M1249.52 1822.21C1249.52 1818.69 1246.66 1815.83 1243.13 1815.83C1239.61 1815.83 1236.75 1818.69 1236.75 1822.21C1236.75 1825.73 1239.61 1828.58 1243.13 1828.58C1246.66 1828.58 1249.52 1825.73 1249.52 1822.21Z" fill="#1E1E1E"/>
<path d="M1249.52 1777.58C1249.52 1774.06 1246.66 1771.2 1243.13 1771.2C1239.61 1771.2 1236.75 1774.06 1236.75 1777.58C1236.75 1781.1 1239.61 1783.95 1243.13 1783.95C1246.66 1783.95 1249.52 1781.1 1249.52 1777.58Z" fill="#1E1E1E"/>
<path d="M1249.52 1732.95C1249.52 1729.43 1246.66 1726.57 1243.14 1726.57C1239.61 1726.57 1236.75 1729.43 1236.75 1732.95C1236.75 1736.47 1239.61 1739.32 1243.14 1739.32C1246.66 1739.32 1249.52 1736.47 1249.52 1732.95Z" fill="#1E1E1E"/>
</g>
<defs>
<clipPath id="clip0_506_1847">
<rect width="1700" height="2124" fill="white"/>
</clipPath>
</defs>
</svg>
