<svg width="20" height="21" viewBox="0 0 20 21" fill="none" xmlns="http://www.w3.org/2000/svg">
<path d="M1.00005 15.8573C1 15.7834 1 15.7073 1 15.6288V4.65737C1 3.37725 1 2.73671 1.21799 2.24777C1.40973 1.81768 1.71547 1.46826 2.0918 1.24913C2.51962 1 3.08009 1 4.2002 1H15.8002C16.9203 1 17.4801 1 17.9079 1.24913C18.2842 1.46826 18.5905 1.81768 18.7822 2.24777C19 2.73623 19 3.37599 19 4.65361V15.6321C19 16.1864 19 16.6205 18.9822 16.9742M1.00005 15.8573C1.00082 16.9867 1.01337 17.5781 1.21799 18.037C1.40973 18.4671 1.71547 18.8177 2.0918 19.0368C2.5192 19.2857 3.07899 19.2857 4.19691 19.2857H15.8036C16.9215 19.2857 17.4805 19.2857 17.9079 19.0368C18.2842 18.8177 18.5905 18.4671 18.7822 18.037C18.9055 17.7605 18.959 17.4358 18.9822 16.9742M1.00005 15.8573L5.76798 9.5L5.76939 9.49828C6.19227 8.9344 6.40406 8.652 6.65527 8.55017C6.87594 8.4608 7.11686 8.46286 7.33643 8.55577C7.58664 8.66171 7.79506 8.94731 8.2119 9.51897L10.8831 13.1823C11.269 13.7115 11.463 13.9776 11.6986 14.0845C11.9065 14.1786 12.1357 14.1893 12.3501 14.1169C12.5942 14.0346 12.8091 13.789 13.2388 13.2979L13.7358 12.7299C14.1733 12.2299 14.3921 11.9801 14.6397 11.8984C14.8571 11.8267 15.0896 11.8422 15.2988 11.9408C15.537 12.0533 15.7302 12.3285 16.1167 12.8806L18.9822 16.9742M18.9822 16.9742L19 16.9995M13 7.85714C12.4477 7.85714 12 7.34546 12 6.71428C12 6.08311 12.4477 5.57143 13 5.57143C13.5523 5.57143 14 6.08311 14 6.71428C14 7.34546 13.5523 7.85714 13 7.85714Z" stroke="#959595" stroke-width="1.5" stroke-linecap="round" stroke-linejoin="round"/>
</svg>
