<svg width="46" height="41" viewBox="0 0 46 41" fill="none" xmlns="http://www.w3.org/2000/svg">
<path d="M27.3518 40.9999L8.4774 30.6754L13.828 26.4174L33.5454 37.0685L27.3518 40.9999ZM6.76709 29.7416L0 26.0402L6.32166 22.3635L12.1095 25.4902L6.76709 29.7416Z" fill="#657CF4"/>
<path d="M33.5637 29.8182L14.6893 19.4937L20.0399 15.2358L39.7574 25.8868L33.5637 29.8182ZM12.979 18.56L6.21191 14.8585L12.5336 11.1819L18.3214 14.3085L12.979 18.56Z" fill="#657CF4"/>
<path d="M39.5464 18.6364L19.973 8.31185L25.5218 4.05392L45.9695 14.705L39.5464 18.6364ZM18.1994 7.37812L11.1816 3.67664L17.7374 0L23.7396 3.12666L18.1994 7.37812Z" fill="#657CF4"/>
</svg>
