<svg width="24" height="25" viewBox="0 0 24 25" fill="none" xmlns="http://www.w3.org/2000/svg">
<path d="M16.3245 9.61793L13.8449 17.561C13.4148 18.939 11.4771 18.9736 10.9981 17.6118L10.184 15.2973C9.94386 14.6147 9.41982 14.0696 8.74722 13.8029L5.93771 12.6887C4.58469 12.1521 4.71198 10.1967 6.12316 9.84006L14.5252 7.71667C15.6619 7.4294 16.6739 8.49874 16.3245 9.61793Z" stroke="white"/>
<path d="M13.3313 11.585C13.5391 11.4032 13.5602 11.0873 13.3784 10.8795C13.1965 10.6717 12.8806 10.6506 12.6728 10.8325L13.3313 11.585ZM9.74454 14.7235L13.3313 11.585L12.6728 10.8325L9.08603 13.9709L9.74454 14.7235Z" fill="white"/>
</svg>
